<svg xmlns="http://www.w3.org/2000/svg" width="24" height="24" viewBox="0 0 24 24" style="fill: #fff;transform: ;msFilter:;">
  <defs>
    <linearGradient id="gradient1" x1="0%" y1="0%" x2="100%" y2="100%">
      <stop offset="5%" style="stop-color:#AB4DCE;stop-opacity:1" />
      <stop offset="65%" style="stop-color:#D32828;stop-opacity:1" />
      <stop offset="90%" style="stop-color:#FFD700;stop-opacity:1" /> 
    </linearGradient>
  </defs>
  <path d="M20.947 8.305a6.53 6.53 0 0 0-.419-2.216 4.61 4.61 0 0 0-2.633-2.633 6.606 6.606 0 0 0-2.186-.42c-.962-.043-1.267-.055-3.709-.055s-2.755 0-3.71.055a6.606 6.606 0 0 0-2.185.42 4.607 4.607 0 0 0-2.633 2.633 6.554 6.554 0 0 0-.419 2.185c-.043.963-.056 1.268-.056 3.71s0 2.754.056 3.71c.015.748.156 1.486.419 2.187a4.61 4.61 0 0 0 2.634 2.632 6.584 6.584 0 0 0 2.185.45c.963.043 1.268.056 3.71.056s2.755 0 3.71-.056a6.59 6.59 0 0 0 2.186-.419 4.615 4.615 0 0 0 2.633-2.633c.263-.7.404-1.438.419-2.187.043-.962.056-1.267.056-3.71-.002-2.442-.002-2.752-.058-3.709zm-8.953 8.297c-2.554 0-4.623-2.069-4.623-4.623s2.069-4.623 4.623-4.623a4.623 4.623 0 0 1 0 9.246zm4.807-8.339a1.077 1.077 0 0 1-1.078-1.078 1.077 1.077 0 1 1 2.155 0c0 .596-.482 1.078-1.077 1.078z"
    fill="url(#gradient1)"></path>
  <circle cx="11.994" cy="11.979" r="3.003" fill="url(#gradient1)"></circle>
</svg>
